# Blender 4.0.2
# www.blender.org
mtllib Rings.mtl
o Cylinder.007
v 0.000000 0.000000 -13.399999
v 4.583070 0.000000 -12.591880
v 8.613354 0.000000 -10.264995
v 11.604740 0.000000 -6.700000
v 13.196424 0.000000 -2.326885
v 13.196424 0.000000 2.326886
v 11.604740 0.000000 6.700000
v 8.613354 0.000000 10.264997
v 4.583070 0.000000 12.591882
v 0.000000 0.000000 13.400001
v -4.583070 0.000000 12.591882
v -8.613354 0.000000 10.264997
v -11.604740 0.000000 6.700000
v -13.196424 0.000000 2.326886
v -13.196424 0.000000 -2.326885
v -11.604740 0.000000 -6.700000
v -8.613354 0.000000 -10.264995
v -4.583070 0.000000 -12.591880
v 2.141535 0.000000 -5.883817
v 0.000000 0.000000 -6.261428
v 4.024769 0.000000 -4.796531
v 5.422556 0.000000 -3.130713
v 6.166304 0.000000 -1.087285
v 5.422556 0.000000 3.130714
v 6.166304 0.000000 1.087286
v 4.024768 0.000000 4.796534
v 2.141535 0.000000 5.883819
v 0.000000 0.000000 6.261430
v -2.141535 0.000000 5.883819
v -4.024768 0.000000 4.796534
v -5.422556 0.000000 3.130714
v -6.166304 0.000000 1.087286
v -5.422556 0.000000 -3.130713
v -6.166304 0.000000 -1.087285
v -4.024769 0.000000 -4.796531
v -2.141535 0.000000 -5.883817
v 2.846588 0.000000 -7.820935
v 0.000000 0.000000 -8.322866
v 5.349836 0.000000 -6.375685
v 7.207814 0.000000 -4.161433
v 8.196424 0.000000 -1.445251
v 7.207814 0.000000 4.161434
v 8.196424 0.000000 1.445251
v 5.349835 0.000000 6.375687
v 2.846588 0.000000 7.820937
v 0.000000 0.000000 8.322868
v -2.846588 0.000000 7.820937
v -5.349835 0.000000 6.375688
v -7.207814 0.000000 4.161434
v -8.196424 0.000000 1.445251
v -7.207814 0.000000 -4.161433
v -8.196424 0.000000 -1.445251
v -5.349836 0.000000 -6.375685
v -2.846588 0.000000 -7.820935
vn -0.0000 1.0000 -0.0000
vt 0.500000 0.797743
vt 0.602502 0.779669
vt 0.665031 0.951465
vt 0.500000 0.980565
vt 0.692641 0.727628
vt 0.810156 0.867677
vt 0.759545 0.647895
vt 0.917873 0.739306
vt 0.795143 0.550089
vt 0.975187 0.581835
vt 0.795143 0.446005
vt 0.759544 0.348199
vt 0.917873 0.256788
vt 0.975187 0.414259
vt 0.692641 0.268466
vt 0.810156 0.128417
vt 0.602502 0.216424
vt 0.665031 0.044628
vt 0.500000 0.198350
vt 0.500000 0.015529
vt 0.397498 0.216424
vt 0.334969 0.044628
vt 0.307359 0.268466
vt 0.189844 0.128417
vt 0.240455 0.348199
vt 0.082127 0.256788
vt 0.204857 0.446005
vt 0.024813 0.414259
vt 0.204857 0.550089
vt 0.240455 0.647895
vt 0.082127 0.739306
vt 0.024813 0.581835
vt 0.307359 0.727628
vt 0.189844 0.867677
vt 0.397498 0.779669
vt 0.334969 0.951465
vt 0.500000 0.723513
vt 0.577114 0.709916
vt 0.644927 0.670764
vt 0.695259 0.610780
vt 0.722041 0.537199
vt 0.722041 0.458895
vt 0.695260 0.385314
vt 0.644927 0.325329
vt 0.577114 0.286178
vt 0.500000 0.272580
vt 0.422886 0.286178
vt 0.355073 0.325329
vt 0.304740 0.385313
vt 0.277959 0.458895
vt 0.277959 0.537198
vt 0.304740 0.610780
vt 0.355073 0.670764
vt 0.422886 0.709916
s 0
f 38/1/1 37/2/1 2/3/1 1/4/1
f 37/2/1 39/5/1 3/6/1 2/3/1
f 39/5/1 40/7/1 4/8/1 3/6/1
f 40/7/1 41/9/1 5/10/1 4/8/1
f 43/11/1 42/12/1 7/13/1 6/14/1
f 42/12/1 44/15/1 8/16/1 7/13/1
f 44/15/1 45/17/1 9/18/1 8/16/1
f 45/17/1 46/19/1 10/20/1 9/18/1
f 46/19/1 47/21/1 11/22/1 10/20/1
f 47/21/1 48/23/1 12/24/1 11/22/1
f 48/23/1 49/25/1 13/26/1 12/24/1
f 49/25/1 50/27/1 14/28/1 13/26/1
f 52/29/1 51/30/1 16/31/1 15/32/1
f 51/30/1 53/33/1 17/34/1 16/31/1
f 53/33/1 54/35/1 18/36/1 17/34/1
f 54/35/1 38/1/1 1/4/1 18/36/1
f 41/9/1 43/11/1 6/14/1 5/10/1
f 50/27/1 52/29/1 15/32/1 14/28/1
f 20/37/1 19/38/1 37/2/1 38/1/1
f 19/38/1 21/39/1 39/5/1 37/2/1
f 21/39/1 22/40/1 40/7/1 39/5/1
f 22/40/1 23/41/1 41/9/1 40/7/1
f 25/42/1 24/43/1 42/12/1 43/11/1
f 24/43/1 26/44/1 44/15/1 42/12/1
f 26/44/1 27/45/1 45/17/1 44/15/1
f 27/45/1 28/46/1 46/19/1 45/17/1
f 28/46/1 29/47/1 47/21/1 46/19/1
f 29/47/1 30/48/1 48/23/1 47/21/1
f 30/48/1 31/49/1 49/25/1 48/23/1
f 31/49/1 32/50/1 50/27/1 49/25/1
f 34/51/1 33/52/1 51/30/1 52/29/1
f 33/52/1 35/53/1 53/33/1 51/30/1
f 35/53/1 36/54/1 54/35/1 53/33/1
f 36/54/1 20/37/1 38/1/1 54/35/1
f 23/41/1 25/42/1 43/11/1 41/9/1
f 32/50/1 34/51/1 52/29/1 50/27/1
